<svg width="2927" height="708" viewBox="0 0 2927 708" fill="none" xmlns="http://www.w3.org/2000/svg">
<path d="M2472.77 433.001H2349.67L2254.15 301.427H2209.58V433.001H2099.21L2099.21 8.49023H2265.64C2312.99 8.49023 2352.02 21.351 2382.74 48.4552C2413.45 75.1291 2428.81 110.408 2428.81 154.29C2428.81 207.638 2406.63 248.079 2362.26 275.614L2472.77 433.001ZM2209.58 104.005V203.765H2264.76C2280.12 203.765 2293.79 200.109 2302.75 191.075C2312.13 181.61 2316.83 169.348 2316.83 154.29C2316.83 139.233 2312.13 127.186 2302.75 118.152C2293.79 109.117 2280.12 104.005 2264.76 104.005H2209.58Z" fill="white"/>
<path d="M1158.91 8.49023C1102.13 110.86 1069.24 169.317 1012.46 271.687V433.001H902.085V271.687L757.751 8.49023H876.614L957.271 157.069L1037.93 8.49023H1158.91Z" fill="white"/>
<path d="M689.829 433.001L674.971 396.917H522.148L507.29 433.001H388.427L577.334 8.49023H615.52L808.692 433.001H689.829ZM636.765 309.893L598.559 210.133L560.354 309.893H636.765Z" fill="white"/>
<path fill-rule="evenodd" clip-rule="evenodd" d="M0 8.48936V360.834L72.1661 433H147.432C212.701 433.86 267.519 414.791 311.885 374.35C356.677 333.479 378.647 281.852 377.794 219.469C378.647 156.656 356.89 105.46 312.525 65.8788C268.159 26.2982 213.128 7.62889 147.432 8.48936H0ZM146.456 333.239H110.373V108.249H146.456C182.29 108.249 211.208 118.151 232.538 137.511C254.294 156.871 265.173 184.191 265.173 219.469C265.173 254.317 254.081 282.067 231.898 302.718C210.142 323.368 181.437 333.239 146.456 333.239Z" fill="white"/>
<path fill-rule="evenodd" clip-rule="evenodd" d="M1691.75 333.24H1504.97L1689.63 35.3627V7.76953H1364.88V107.53H1521.95L1354.34 377.892L1409.45 433.001H1691.75V333.24Z" fill="white"/>
<path fill-rule="evenodd" clip-rule="evenodd" d="M1729.88 8.48535V432.996L2031.28 432.998V333.24H1840.28V261.073H1969.73V167.681H1840.28V108.247H1950.63L2022.79 36.0827L2022.79 108.247V8.48742L1729.88 8.48535Z" fill="white"/>
<path d="M2706.25 148.578L2725.75 201.253L2778.42 220.745L2725.75 240.237L2706.25 292.912L2686.76 240.237L2634.09 220.745L2686.76 201.253L2706.25 148.578Z" fill="white"/>
<path fill-rule="evenodd" clip-rule="evenodd" d="M2885.74 350.644C2914.21 313.014 2927.94 269.72 2926.95 220.761C2928.19 160.099 2906.49 107.827 2861.86 63.9437C2817.64 20.0608 2765.56 -1.23534 2705.63 0.0553132C2657.34 -0.984904 2614.14 12.6466 2576.04 40.9498L2652.29 117.199C2668.43 108.771 2686.79 104.005 2706.25 104.005C2770.73 104.005 2822.99 156.272 2822.99 220.745C2822.99 240.214 2818.23 258.569 2809.8 274.709L2885.74 350.644ZM2602.71 166.782C2594.28 182.922 2589.51 201.277 2589.51 220.745C2589.51 285.219 2641.78 337.486 2706.25 337.486C2725.72 337.486 2744.08 332.72 2760.22 324.292L2835.84 399.916C2797.59 428.313 2754.19 442.163 2705.63 441.466C2645.3 442.326 2593.22 421.03 2549.41 377.578C2505.6 334.125 2484.32 281.853 2485.56 220.761C2484.56 171.893 2498.18 128.469 2526.42 90.49L2602.71 166.782Z" fill="white"/>
<path d="M602.958 707.065C581.63 707.065 562.477 699.458 545.496 684.244L552.424 676.297C560.439 683.768 568.386 689.202 576.265 692.598C584.144 695.858 593.245 697.488 603.569 697.488C614.165 697.488 622.791 694.839 629.447 689.542C636.239 684.108 639.636 677.18 639.636 668.758C639.636 660.879 636.783 654.63 631.077 650.011C625.508 645.392 614.912 641.521 599.29 638.397C582.174 634.865 569.88 629.974 562.409 623.725C554.937 617.477 551.201 608.851 551.201 597.847C551.201 587.251 555.549 578.354 564.242 571.154C572.936 563.954 583.872 560.354 597.049 560.354C607.101 560.354 615.863 561.781 623.334 564.634C630.942 567.35 638.481 571.697 645.952 577.675L639.228 586.029C626.866 575.297 612.671 569.931 596.641 569.931C586.317 569.931 577.895 572.58 571.374 577.878C564.99 583.04 561.797 589.493 561.797 597.236C561.797 605.251 564.65 611.635 570.355 616.39C576.197 621.144 587.2 625.152 603.365 628.412C619.802 631.808 631.689 636.631 639.024 642.879C646.496 649.128 650.231 657.55 650.231 668.146C650.231 679.557 645.816 688.93 636.987 696.266C628.157 703.465 616.814 707.065 602.958 707.065Z" fill="white"/>
<path d="M1294.22 707.354C1276.69 707.354 1262.57 701.988 1251.83 691.256C1241.1 680.524 1235.74 665.378 1235.74 645.816V562.477H1246.33V644.798C1246.33 661.506 1250.61 674.547 1259.17 683.921C1267.73 693.158 1279.55 697.777 1294.62 697.777C1309.43 697.777 1321.05 693.362 1329.47 684.532C1337.89 675.566 1342.1 662.661 1342.1 645.816V562.477H1352.7V644.594C1352.7 664.563 1347.4 680.049 1336.8 691.052C1326.21 701.92 1312.01 707.354 1294.22 707.354Z" fill="white"/>
<path d="M1604.71 705.112V562.477H1652.19C1674.46 562.477 1692.67 569.269 1706.79 582.853C1720.92 596.302 1727.99 613.282 1727.99 633.794C1727.99 654.171 1720.85 671.151 1706.59 684.736C1692.46 698.32 1674.33 705.112 1652.19 705.112H1604.71ZM1615.3 695.331H1652.19C1671.61 695.331 1687.23 689.49 1699.05 677.808C1711.01 666.125 1716.98 651.454 1716.98 633.794C1716.98 616.406 1711.01 601.803 1699.05 589.985C1687.23 578.166 1671.61 572.257 1652.19 572.257H1615.3V695.331Z" fill="white"/>
<path d="M2360.81 686.078C2347.36 700.613 2330.11 707.88 2309.05 707.88C2287.99 707.88 2270.81 700.681 2257.5 686.281C2244.19 671.746 2237.53 654.358 2237.53 634.117C2237.53 614.013 2244.25 596.693 2257.7 582.157C2271.15 567.622 2288.4 560.354 2309.46 560.354C2330.51 560.354 2347.7 567.622 2361.01 582.157C2374.32 596.557 2380.98 613.877 2380.98 634.117C2380.98 654.222 2374.26 671.542 2360.81 686.078ZM2265.85 679.557C2277.54 692.055 2292.07 698.303 2309.46 698.303C2326.85 698.303 2341.25 692.123 2352.66 679.761C2364.2 667.399 2369.98 652.185 2369.98 634.117C2369.98 616.322 2364.14 601.175 2352.45 588.678C2340.91 576.18 2326.44 569.931 2309.05 569.931C2291.66 569.931 2277.2 576.112 2265.65 588.474C2254.24 600.836 2248.53 616.05 2248.53 634.117C2248.53 651.913 2254.31 667.059 2265.85 679.557Z" fill="white"/>
<path fill-rule="evenodd" clip-rule="evenodd" d="M933.463 572.257V705.112H944.059V572.257H993.777V562.477H883.744V565.038L890.963 572.257H933.463Z" fill="white"/>
<path fill-rule="evenodd" clip-rule="evenodd" d="M1976.1 562.477V698.32L1984.59 706.81L1976.1 706.81H1986.71V562.477H1976.1Z" fill="white"/>
</svg>
